<svg preserveAspectRatio="xMidYMid meet" data-bbox="34.147 34.372 132.019 149.03" xmlns="http://www.w3.org/2000/svg" width="200" height="200" viewBox="34.147 34.372 132.019 149.03" data-type="color" role="presentation" aria-hidden="true">
    <g>
        <path fill="#141414" d="M116.594 112.924l-.081 1.542c-.546-.593-.449-1.105.081-1.542z" data-color="1"></path>
        <path fill="#141414" d="M117.14 108.197c.049.016.167.028.172.059a.937.937 0 01.001.384c-.028.112-.113.21-.174.314l.001-.757z" data-color="1"></path>
        <path d="M115.575 68.034l.113.057-.059.209-.054-.266z" fill="#141414" data-color="1"></path>
        <path fill="#141414" d="M49.586 66.797c.076 2.79.149 5.581.23 8.371.024.824.053 1.649.117 2.471.058.74.268 1.419.766 2.017.466.559.873 1.176 1.246 1.804 1.6 2.693 1.54 5.386-.056 8.062-.047.079-.076.175-.139.236-1.543 1.465-1.628 3.314-1.594 5.303.151 8.89.195 17.781.301 26.672.17 14.298.353 28.595.544 42.892.054 4.032.159 8.064.228 12.096.009.547-.005 1.105-.11 1.637-.042.216-.335.503-.551.54a5.764 5.764 0 01-1.601.045c-.375-.043-.636-.363-.668-.761a21.961 21.961 0 01-.086-1.919c.055-7.791.096-15.583.186-23.374.159-13.839.339-27.679.532-41.518.076-5.407.211-10.813.318-16.219.009-.458-.007-.918.022-1.375.068-1.055-.223-1.962-.91-2.789-.762-.918-1.319-1.969-1.744-3.096-.69-1.828-.566-3.612.292-5.324a14.77 14.77 0 011.622-2.533c.603-.76.877-1.553.878-2.515.003-3.208.049-6.416.077-9.624.003-.365 0-.731 0-1.097l.1-.002z" data-color="1"></path>
        <path fill="#141414" d="M35.544 133.953c1.501 2.037 5.794 8.087 7.347 10.314.961 1.378 1.817 2.837 2.633 4.308.779 1.406.917 2.954.718 4.541-.118.942-.529 1.716-1.198 2.379-.581.576-1.294.698-2.026.312-3.721-1.958-5.371-5.498-5.801-9.484-.286-2.658 2.885-4.184-1.673-12.37z" data-color="1"></path>
        <path fill="#141414" d="M35.242 149.605c1.276 1.744 5.655 8.634 7.049 10.643 1.104 1.592 2.127 3.243 3.134 4.9.764 1.257.955 2.676.882 4.123a6.29 6.29 0 01-.29 1.522c-.602 1.947-2.331 2.498-3.954 1.281-4.183-3.136-6.244-9.247-4.816-14.25.335-1.175.297-3.475-2.005-8.219z" data-color="1"></path>
        <path fill="#141414" d="M39.094 134.245a9.343 9.343 0 01-.108-1.021c-.119-2.285.867-4.368.558-6.712-.172-1.307-4.837-7.073-4.837-7.721-.383-.714 5.808 7.541 6.157 8.005 1.172 1.56 2.4 3.086 3.461 4.72.844 1.3 1.529 2.713 2.182 4.124.507 1.096.486 2.277.086 3.428-.88 2.532-3.078 1.862-4.679.416-1.53-1.38-2.496-3.232-2.82-5.239z" data-color="1"></path>
        <path fill="#141414" d="M34.149 102.233c1.608 2.181 8.664 12.719 10.182 14.835.991 1.381 1.84 2.854 2.314 4.501.387 1.344.162 3.74-1.099 4.607-1.994 1.37-4.248-1.461-5.259-2.862-1.886-2.614-1.527-5.36-1.487-8.43.093-7.163-4.759-12.248-4.651-12.651z" data-color="1"></path>
        <path fill="#141414" d="M42.707 96.186c-1.86-6.884 3.442-4.837-7.907-19.814 1.997 1.874 11.064 15.725 11.792 17.543.594 1.484.798 3 .157 4.542-1.245 2.993-3.602-.641-4.042-2.271z" data-color="1"></path>
        <path fill="#141414" d="M46.089 106.167c-.396-.669-.797-1.339-1.255-1.964-1.064-1.452-9.194-12.959-10.592-14.808 2.463 3.463 4.093 6.512 4.837 8.558.702 1.931.987 4.068 1.188 6.032.269 2.62.9 8.593 4.613 8.69 1.247.033 1.908-.897 2.151-2.048.337-1.6-.127-3.082-.942-4.46z" data-color="1"></path>
        <path fill="#141414" d="M63.746 133.953c-1.501 2.037-5.794 8.087-7.347 10.314-.961 1.378-1.817 2.837-2.633 4.308-.779 1.406-.917 2.954-.718 4.541.118.942.529 1.716 1.198 2.379.581.576 1.294.698 2.026.312 3.721-1.958 5.371-5.498 5.801-9.484.285-2.658-2.885-4.184 1.673-12.37z" data-color="1"></path>
        <path fill="#141414" d="M64.048 149.605c-1.276 1.744-5.655 8.634-7.049 10.643-1.104 1.592-2.127 3.243-3.134 4.9-.764 1.257-.955 2.676-.882 4.123a6.29 6.29 0 00.29 1.522c.602 1.947 2.331 2.498 3.954 1.281 4.183-3.136 6.244-9.247 4.816-14.25-.335-1.175-.297-3.475 2.005-8.219z" data-color="1"></path>
        <path fill="#141414" d="M60.196 134.245c.054-.336.091-.677.108-1.021.119-2.285-.867-4.368-.558-6.712.172-1.307 4.837-7.073 4.837-7.721.383-.714-5.808 7.541-6.157 8.005-1.172 1.56-2.4 3.086-3.461 4.72-.844 1.3-1.529 2.713-2.182 4.124-.507 1.096-.486 2.277-.086 3.428.88 2.532 3.078 1.862 4.679.416 1.53-1.38 2.496-3.232 2.82-5.239z" data-color="1"></path>
        <path fill="#141414" d="M65.141 102.233c-1.608 2.181-8.664 12.719-10.182 14.835-.991 1.381-1.84 2.854-2.314 4.501-.387 1.344-.162 3.74 1.099 4.607 1.994 1.37 4.248-1.461 5.259-2.862 1.886-2.614 1.527-5.36 1.487-8.43-.093-7.163 4.758-12.248 4.651-12.651z" data-color="1"></path>
        <path fill="#141414" d="M56.583 96.186c1.86-6.884-3.442-4.837 7.907-19.814-1.997 1.874-11.064 15.725-11.792 17.543-.594 1.484-.798 3-.157 4.542 1.245 2.993 3.601-.641 4.042-2.271z" data-color="1"></path>
        <path fill="#141414" d="M53.201 106.167c.396-.669.797-1.339 1.255-1.964 1.064-1.452 9.194-12.959 10.592-14.808-2.463 3.463-4.093 6.512-4.837 8.558-.702 1.931-.987 4.068-1.188 6.032-.269 2.62-.9 8.593-4.613 8.69-1.247.033-1.908-.897-2.151-2.048-.337-1.6.127-3.082.942-4.46z" data-color="1"></path>
        <path fill="#141414" d="M150.609 66.797c.076 2.79.149 5.581.23 8.371.024.824.053 1.649.117 2.471.058.74.268 1.419.766 2.017.466.559.873 1.176 1.246 1.804 1.6 2.693 1.54 5.386-.056 8.062-.047.079-.076.175-.139.236-1.543 1.465-1.628 3.314-1.594 5.303.151 8.89.195 17.781.301 26.672.17 14.298.353 28.595.544 42.892.054 4.032.159 8.064.228 12.096.009.547-.005 1.105-.11 1.637-.042.216-.335.503-.551.54a5.764 5.764 0 01-1.601.045c-.375-.043-.635-.363-.668-.761a21.961 21.961 0 01-.086-1.919c.055-7.791.096-15.583.186-23.374.159-13.839.339-27.679.532-41.518.076-5.407.211-10.813.318-16.219.009-.458-.007-.918.022-1.375.068-1.055-.223-1.962-.91-2.789-.762-.918-1.319-1.969-1.744-3.096-.69-1.828-.566-3.612.292-5.324a14.77 14.77 0 011.622-2.533c.603-.76.877-1.553.878-2.515.003-3.208.049-6.416.077-9.624.003-.365 0-.731 0-1.097l.1-.002z" data-color="1"></path>
        <path fill="#141414" d="M136.567 133.953c1.501 2.037 5.794 8.087 7.347 10.314.961 1.378 1.817 2.837 2.633 4.308.779 1.406.917 2.954.718 4.541-.118.942-.529 1.716-1.198 2.379-.581.576-1.294.698-2.026.312-3.721-1.958-5.371-5.498-5.801-9.484-.286-2.658 2.885-4.184-1.673-12.37z" data-color="1"></path>
        <path fill="#141414" d="M136.265 149.605c1.276 1.744 5.655 8.634 7.049 10.643 1.104 1.592 2.127 3.243 3.134 4.9.764 1.257.955 2.676.882 4.123a6.29 6.29 0 01-.29 1.522c-.602 1.947-2.331 2.498-3.954 1.281-4.183-3.136-6.244-9.247-4.816-14.25.335-1.175.297-3.475-2.005-8.219z" data-color="1"></path>
        <path fill="#141414" d="M140.117 134.245a9.343 9.343 0 01-.108-1.021c-.119-2.285.867-4.368.558-6.712-.172-1.307-4.837-7.073-4.837-7.721-.383-.714 5.808 7.541 6.157 8.005 1.172 1.56 2.4 3.086 3.461 4.72.844 1.3 1.529 2.713 2.182 4.124.507 1.096.486 2.277.086 3.428-.88 2.532-3.078 1.862-4.679.416-1.53-1.38-2.496-3.232-2.82-5.239z" data-color="1"></path>
        <path fill="#141414" d="M135.172 102.233c1.608 2.181 8.664 12.719 10.182 14.835.991 1.381 1.84 2.854 2.314 4.501.387 1.344.162 3.74-1.099 4.607-1.994 1.37-4.248-1.461-5.259-2.862-1.886-2.614-1.527-5.36-1.487-8.43.093-7.163-4.758-12.248-4.651-12.651z" data-color="1"></path>
        <path fill="#141414" d="M143.73 96.186c-1.86-6.884 3.442-4.837-7.907-19.814 1.997 1.874 11.064 15.725 11.792 17.543.594 1.484.798 3 .157 4.542-1.245 2.993-3.602-.641-4.042-2.271z" data-color="1"></path>
        <path fill="#141414" d="M147.112 106.167c-.396-.669-.797-1.339-1.255-1.964-1.064-1.452-9.194-12.959-10.592-14.808 2.463 3.463 4.093 6.512 4.837 8.558.702 1.931.987 4.068 1.188 6.032.269 2.62.9 8.593 4.613 8.69 1.247.033 1.908-.897 2.151-2.048.337-1.6-.127-3.082-.942-4.46z" data-color="1"></path>
        <path fill="#141414" d="M164.769 133.953c-1.501 2.037-5.794 8.087-7.347 10.314-.961 1.378-1.817 2.837-2.633 4.308-.779 1.406-.917 2.954-.718 4.541.118.942.529 1.716 1.198 2.379.581.576 1.294.698 2.026.312 3.721-1.958 5.371-5.498 5.801-9.484.285-2.658-2.885-4.184 1.673-12.37z" data-color="1"></path>
        <path fill="#141414" d="M165.071 149.605c-1.276 1.744-5.655 8.634-7.049 10.643-1.104 1.592-2.127 3.243-3.134 4.9-.764 1.257-.955 2.676-.882 4.123a6.29 6.29 0 00.29 1.522c.602 1.947 2.331 2.498 3.954 1.281 4.183-3.136 6.244-9.247 4.816-14.25-.335-1.175-.297-3.475 2.005-8.219z" data-color="1"></path>
        <path fill="#141414" d="M161.219 134.245c.054-.336.091-.677.108-1.021.119-2.285-.867-4.368-.558-6.712.172-1.307 4.837-7.073 4.837-7.721.383-.714-5.808 7.541-6.157 8.005-1.172 1.56-2.4 3.086-3.461 4.72-.844 1.3-1.529 2.713-2.182 4.124-.507 1.096-.486 2.277-.086 3.428.88 2.532 3.078 1.862 4.679.416 1.53-1.38 2.496-3.232 2.82-5.239z" data-color="1"></path>
        <path fill="#141414" d="M166.164 102.233c-1.608 2.181-8.664 12.719-10.182 14.835-.991 1.381-1.84 2.854-2.314 4.501-.387 1.344-.162 3.74 1.099 4.607 1.994 1.37 4.248-1.461 5.259-2.862 1.886-2.614 1.527-5.36 1.487-8.43-.093-7.163 4.758-12.248 4.651-12.651z" data-color="1"></path>
        <path fill="#141414" d="M157.606 96.186c1.86-6.884-3.442-4.837 7.907-19.814-1.997 1.874-11.064 15.725-11.792 17.543-.594 1.484-.798 3-.157 4.542 1.245 2.993 3.601-.641 4.042-2.271z" data-color="1"></path>
        <path fill="#141414" d="M154.224 106.167c.396-.669.797-1.339 1.255-1.964 1.064-1.452 9.194-12.959 10.592-14.808-2.463 3.463-4.093 6.512-4.837 8.558-.702 1.931-.987 4.068-1.188 6.032-.269 2.62-.9 8.593-4.613 8.69-1.247.033-1.908-.897-2.151-2.048-.337-1.6.127-3.082.942-4.46z" data-color="1"></path>
        <path fill="#141414" d="M99.683 34.372c.101 3.707.198 7.414.306 11.121.032 1.095.071 2.191.155 3.283.077.983.357 1.885 1.018 2.679.619.743 1.16 1.563 1.655 2.396 2.126 3.577 2.045 7.155-.075 10.71-.062.105-.101.233-.185.313-2.049 1.947-2.162 4.403-2.118 7.045.2 11.81.259 23.622.399 35.433.226 18.994.469 37.988.723 56.981.072 5.357.211 10.712.303 16.069.012.726-.006 1.467-.146 2.175-.056.287-.446.668-.732.717a7.617 7.617 0 01-2.127.06c-.499-.057-.844-.482-.888-1.011-.07-.847-.12-1.7-.114-2.549.073-10.351.128-20.701.247-31.051.212-18.385.45-36.77.707-55.155.1-7.183.28-14.365.423-21.547.012-.609-.009-1.219.03-1.826.09-1.402-.296-2.606-1.209-3.705-1.012-1.219-1.752-2.615-2.317-4.113-.917-2.429-.752-4.799.389-7.073a19.618 19.618 0 012.155-3.366c.802-1.01 1.166-2.064 1.167-3.341.004-4.262.065-8.524.102-12.786.004-.486.001-.971.001-1.457l.131-.002z" data-color="1"></path>
        <path fill="#141414" d="M81.028 123.588c1.994 2.706 7.698 10.744 9.761 13.702 1.277 1.831 2.414 3.769 3.498 5.724 1.035 1.868 1.219 3.925.954 6.033-.157 1.251-.702 2.28-1.591 3.161-.772.765-1.718.927-2.691.415-4.943-2.601-7.135-7.304-7.706-12.599-.382-3.534 3.831-5.561-2.225-16.436z" data-color="1"></path>
        <path fill="#141414" d="M80.627 144.381c1.694 2.316 7.513 11.471 9.364 14.139 1.467 2.115 2.826 4.308 4.163 6.51 1.015 1.67 1.268 3.555 1.172 5.477-.034.68-.183 1.37-.385 2.023-.8 2.587-3.097 3.318-5.253 1.702-5.557-4.166-8.296-12.284-6.398-18.93.445-1.563.395-4.619-2.663-10.921z" data-color="1"></path>
        <path fill="#141414" d="M85.745 123.976c-.072-.447-.12-.9-.144-1.356-.158-3.036 1.151-5.803.742-8.917-.228-1.736-6.426-9.396-6.426-10.257-.509-.948 7.716 10.017 8.18 10.634 1.558 2.072 3.188 4.1 4.598 6.271 1.121 1.727 2.032 3.604 2.899 5.479.674 1.457.646 3.025.114 4.555-1.169 3.364-4.089 2.473-6.217.553-2.033-1.836-3.316-4.296-3.746-6.962z" data-color="1"></path>
        <path fill="#141414" d="M79.175 81.448c2.136 2.897 11.509 16.897 13.526 19.707 1.316 1.834 2.445 3.792 3.075 5.98.514 1.785.215 4.969-1.46 6.12-2.65 1.821-5.644-1.941-6.986-3.802-2.506-3.473-2.028-7.121-1.975-11.2.122-9.514-6.323-16.269-6.18-16.805z" data-color="1"></path>
        <path fill="#141414" d="M90.544 73.415c-2.472-9.145 4.572-6.426-10.504-26.322 2.653 2.489 14.698 20.89 15.665 23.305.789 1.971 1.06 3.985.208 6.034-1.653 3.976-4.784-.851-5.369-3.017z" data-color="1"></path>
        <path fill="#141414" d="M95.037 86.675c-.525-.888-1.059-1.778-1.667-2.609-1.414-1.929-12.214-17.215-14.071-19.671 3.272 4.601 5.437 8.651 6.426 11.369.933 2.566 1.311 5.404 1.579 8.013.357 3.481 1.196 11.416 6.128 11.545 1.657.043 2.535-1.191 2.857-2.72.447-2.127-.169-4.097-1.252-5.927z" data-color="1"></path>
        <path fill="#141414" d="M118.494 123.588c-1.994 2.706-7.698 10.744-9.761 13.702-1.277 1.831-2.414 3.769-3.498 5.724-1.035 1.868-1.219 3.925-.954 6.033.157 1.251.702 2.28 1.591 3.161.772.765 1.718.927 2.691.415 4.943-2.601 7.135-7.304 7.706-12.599.382-3.534-3.831-5.561 2.225-16.436z" data-color="1"></path>
        <path fill="#141414" d="M118.895 144.381c-1.695 2.316-7.513 11.471-9.364 14.139-1.467 2.115-2.826 4.308-4.163 6.51-1.015 1.67-1.268 3.555-1.172 5.477.034.68.183 1.37.385 2.023.8 2.587 3.097 3.318 5.253 1.702 5.557-4.166 8.296-12.284 6.398-18.93-.445-1.563-.395-4.619 2.663-10.921z" data-color="1"></path>
        <path fill="#141414" d="M113.777 123.976c.072-.447.12-.9.144-1.356.158-3.036-1.151-5.803-.742-8.917.228-1.736 6.426-9.396 6.426-10.257.509-.948-7.716 10.017-8.18 10.634-1.558 2.072-3.188 4.1-4.598 6.271-1.121 1.727-2.032 3.604-2.899 5.479-.674 1.457-.646 3.025-.114 4.555 1.169 3.364 4.089 2.473 6.217.553 2.033-1.836 3.316-4.296 3.746-6.962z" data-color="1"></path>
        <path fill="#141414" d="M120.347 81.448c-2.136 2.897-11.509 16.897-13.526 19.707-1.316 1.834-2.445 3.792-3.075 5.98-.514 1.785-.215 4.969 1.46 6.12 2.65 1.821 5.644-1.941 6.986-3.802 2.506-3.473 2.028-7.121 1.975-11.2-.122-9.514 6.323-16.269 6.18-16.805z" data-color="1"></path>
        <path fill="#141414" d="M108.978 73.415c2.472-9.145-4.572-6.426 10.504-26.322-2.653 2.489-14.698 20.89-15.665 23.305-.789 1.971-1.06 3.985-.208 6.034 1.653 3.976 4.784-.851 5.369-3.017z" data-color="1"></path>
        <path fill="#141414" d="M104.485 86.675c.525-.888 1.059-1.778 1.667-2.609 1.414-1.929 12.214-17.215 14.071-19.671-3.272 4.601-5.437 8.651-6.426 11.369-.933 2.566-1.311 5.404-1.579 8.013-.357 3.481-1.196 11.416-6.128 11.545-1.657.043-2.535-1.191-2.857-2.72-.447-2.127.169-4.097 1.252-5.927z" data-color="1"></path>
    </g>
</svg>